<svg xmlns="http://www.w3.org/2000/svg" viewBox="0 0 256 256" role="img" aria-label="迷你龍王">
<defs>
  <radialGradient id="avatar_dragon-bg" cx="30%" cy="22%" r="88%">
    <stop offset="0" stop-color="#dbeafe"/><stop offset=".52" stop-color="#1d4ed8"/><stop offset="1" stop-color="#090f1d"/>
  </radialGradient>
  <linearGradient id="avatar_dragon-rim" x1="20" y1="18" x2="236" y2="240">
    <stop offset="0" stop-color="#fff2bb"/><stop offset=".48" stop-color="#60a5fa"/><stop offset="1" stop-color="#172554"/>
  </linearGradient>
  <linearGradient id="avatar_dragon-body" x1="60" y1="40" x2="190" y2="220">
    <stop offset="0" stop-color="#dbeafe"/><stop offset=".46" stop-color="#60a5fa"/><stop offset="1" stop-color="#172554"/>
  </linearGradient>
  <filter id="avatar_dragon-shadow" x="-35%" y="-35%" width="170%" height="180%">
    <feDropShadow dx="0" dy="15" stdDeviation="13" flood-color="#000" flood-opacity=".46"/>
  </filter>
  <clipPath id="avatar_dragon-clip"><rect x="28" y="28" width="200" height="200" rx="38"/></clipPath>
</defs>
<rect width="256" height="256" rx="46" fill="#0b1220"/>
<rect x="18" y="18" width="220" height="220" rx="46" fill="url(#avatar_dragon-rim)"/>
<rect x="24" y="24" width="208" height="208" rx="41" fill="url(#avatar_dragon-bg)"/>
<g clip-path="url(#avatar_dragon-clip)">
  <path d="M-8 212C39 178 55 132 81 77c28 35 58 43 94 25 26 45 55 78 91 99v60H-8Z" fill="#020617" opacity=".31"/>
  <circle cx="198" cy="58" r="29" fill="#fff" opacity=".13"/>
  <circle cx="59" cy="202" r="31" fill="#fff" opacity=".10"/>
  <path d="M68 147c-6-51 22-84 60-84s66 33 60 84c-5 42-34 62-60 62s-55-20-60-62Z" fill="url(#avatar_dragon-body)" stroke="#071421" stroke-width="8" filter="url(#avatar_dragon-shadow)"/><g fill="url(#avatar_dragon-body)" stroke="#071421" stroke-width="7"><path d="M76 106 54 67l47 23M180 106l22-39-47 23M155 76l21-33M101 76 80 43"/></g><circle cx="108" cy="141" r="8" fill="#071421"/><circle cx="149" cy="141" r="8" fill="#071421"/><path d="M110 169c12 9 28 9 40 0" stroke="#071421" stroke-width="7" fill="none" stroke-linecap="round"/>
  <g fill="#fff" opacity=".75"><circle cx="202" cy="58" r="6"/><circle cx="51" cy="203" r="3"/><circle cx="47" cy="76" r="2.5"/></g>
</g>
<rect x="24" y="24" width="208" height="208" rx="41" fill="none" stroke="#fff7d6" stroke-width="2" opacity=".56"/>
<rect x="18" y="18" width="220" height="220" rx="46" fill="none" stroke="#0f172a" stroke-width="5" opacity=".45"/>
</svg>