<svg xmlns="http://www.w3.org/2000/svg" viewBox="0 0 256 256" role="img" aria-label="幻蝶使">
<defs>
  <radialGradient id="avatar_butterfly-bg" cx="30%" cy="22%" r="88%">
    <stop offset="0" stop-color="#f8fafc"/><stop offset=".52" stop-color="#64748b"/><stop offset="1" stop-color="#090f1d"/>
  </radialGradient>
  <linearGradient id="avatar_butterfly-rim" x1="20" y1="18" x2="236" y2="240">
    <stop offset="0" stop-color="#fff2bb"/><stop offset=".48" stop-color="#cbd5e1"/><stop offset="1" stop-color="#334155"/>
  </linearGradient>
  <linearGradient id="avatar_butterfly-body" x1="60" y1="40" x2="190" y2="220">
    <stop offset="0" stop-color="#f8fafc"/><stop offset=".46" stop-color="#cbd5e1"/><stop offset="1" stop-color="#334155"/>
  </linearGradient>
  <filter id="avatar_butterfly-shadow" x="-35%" y="-35%" width="170%" height="180%">
    <feDropShadow dx="0" dy="15" stdDeviation="13" flood-color="#000" flood-opacity=".46"/>
  </filter>
  <clipPath id="avatar_butterfly-clip"><rect x="28" y="28" width="200" height="200" rx="38"/></clipPath>
</defs>
<rect width="256" height="256" rx="46" fill="#0b1220"/>
<rect x="18" y="18" width="220" height="220" rx="46" fill="url(#avatar_butterfly-rim)"/>
<rect x="24" y="24" width="208" height="208" rx="41" fill="url(#avatar_butterfly-bg)"/>
<g clip-path="url(#avatar_butterfly-clip)">
  <path d="M-8 212C39 178 55 132 81 77c28 35 58 43 94 25 26 45 55 78 91 99v60H-8Z" fill="#020617" opacity=".31"/>
  <circle cx="198" cy="58" r="29" fill="#fff" opacity=".13"/>
  <circle cx="59" cy="202" r="31" fill="#fff" opacity=".10"/>
  <g filter="url(#avatar_butterfly-shadow)" stroke="#071421" stroke-width="8"><ellipse cx="94" cy="119" rx="38" ry="52" fill="url(#avatar_butterfly-body)" transform="rotate(-26 94 119)"/><ellipse cx="162" cy="119" rx="38" ry="52" fill="url(#avatar_butterfly-body)" transform="rotate(26 162 119)"/><ellipse cx="103" cy="169" rx="28" ry="34" fill="url(#avatar_butterfly-body)" transform="rotate(24 103 169)"/><ellipse cx="153" cy="169" rx="28" ry="34" fill="url(#avatar_butterfly-body)" transform="rotate(-24 153 169)"/></g><path d="M128 88v91M108 62c12 13 17 25 20 42M148 62c-12 13-17 25-20 42" stroke="#071421" stroke-width="7" fill="none" stroke-linecap="round"/><circle cx="128" cy="129" r="12" fill="#071421"/>
  <g fill="#fff" opacity=".75"><circle cx="202" cy="58" r="6"/><circle cx="51" cy="203" r="3"/><circle cx="47" cy="76" r="2.5"/></g>
</g>
<rect x="24" y="24" width="208" height="208" rx="41" fill="none" stroke="#fff7d6" stroke-width="2" opacity=".56"/>
<rect x="18" y="18" width="220" height="220" rx="46" fill="none" stroke="#0f172a" stroke-width="5" opacity=".45"/>
</svg>