<svg xmlns="http://www.w3.org/2000/svg" viewBox="0 0 256 256" role="img" aria-label="櫻花棋盤">
<defs>
  <radialGradient id="_ph_bd3-bg" cx="30%" cy="22%" r="88%">
    <stop offset="0" stop-color="#dcfce7"/><stop offset=".52" stop-color="#059669"/><stop offset="1" stop-color="#090f1d"/>
  </radialGradient>
  <linearGradient id="_ph_bd3-rim" x1="20" y1="18" x2="236" y2="240">
    <stop offset="0" stop-color="#fff2bb"/><stop offset=".48" stop-color="#34d399"/><stop offset="1" stop-color="#065f46"/>
  </linearGradient>
  <linearGradient id="_ph_bd3-body" x1="60" y1="40" x2="190" y2="220">
    <stop offset="0" stop-color="#dcfce7"/><stop offset=".46" stop-color="#34d399"/><stop offset="1" stop-color="#065f46"/>
  </linearGradient>
  <filter id="_ph_bd3-shadow" x="-35%" y="-35%" width="170%" height="180%">
    <feDropShadow dx="0" dy="15" stdDeviation="13" flood-color="#000" flood-opacity=".46"/>
  </filter>
  <clipPath id="_ph_bd3-clip"><rect x="28" y="28" width="200" height="200" rx="38"/></clipPath>
</defs>
<rect width="256" height="256" rx="46" fill="#0b1220"/>
<rect x="18" y="18" width="220" height="220" rx="46" fill="url(#_ph_bd3-rim)"/>
<rect x="24" y="24" width="208" height="208" rx="41" fill="url(#_ph_bd3-bg)"/>
<g clip-path="url(#_ph_bd3-clip)">
  <path d="M-8 212C39 178 55 132 81 77c28 35 58 43 94 25 26 45 55 78 91 99v60H-8Z" fill="#020617" opacity=".31"/>
  <circle cx="198" cy="58" r="29" fill="#fff" opacity=".13"/>
  <circle cx="59" cy="202" r="31" fill="#fff" opacity=".10"/>
  <rect x="62" y="66" width="132" height="132" rx="15" fill="url(#_ph_bd3-body)" stroke="#071421" stroke-width="8" filter="url(#_ph_bd3-shadow)"/><path d="M88 66v132M115 66v132M142 66v132M169 66v132M62 92h132M62 119h132M62 146h132M62 173h132" stroke="#071421" stroke-width="4" opacity=".6"/><circle cx="128" cy="132" r="7" fill="#071421"/><g fill="#fff" opacity=".62" stroke="#071421" stroke-width="5"><ellipse cx="128" cy="100" rx="17" ry="31"/><ellipse cx="128" cy="164" rx="17" ry="31"/><ellipse cx="96" cy="132" rx="31" ry="17"/><ellipse cx="160" cy="132" rx="31" ry="17"/></g><circle cx="128" cy="132" r="12" fill="url(#_ph_bd3-body)" stroke="#071421" stroke-width="5"/>
  <g fill="#fff" opacity=".75"><circle cx="202" cy="58" r="6"/><circle cx="51" cy="203" r="3"/><circle cx="47" cy="76" r="2.5"/></g>
</g>
<rect x="24" y="24" width="208" height="208" rx="41" fill="none" stroke="#fff7d6" stroke-width="2" opacity=".56"/>
<rect x="18" y="18" width="220" height="220" rx="46" fill="none" stroke="#0f172a" stroke-width="5" opacity=".45"/>
</svg>