<svg xmlns="http://www.w3.org/2000/svg" viewBox="0 0 256 256" role="img" aria-label="鬼角盔">
<defs>
  <radialGradient id="hat_onihorns-bg" cx="30%" cy="22%" r="88%">
    <stop offset="0" stop-color="#dbeafe"/><stop offset=".52" stop-color="#2563eb"/><stop offset="1" stop-color="#090f1d"/>
  </radialGradient>
  <linearGradient id="hat_onihorns-rim" x1="20" y1="18" x2="236" y2="240">
    <stop offset="0" stop-color="#fff2bb"/><stop offset=".48" stop-color="#60a5fa"/><stop offset="1" stop-color="#1e3a8a"/>
  </linearGradient>
  <linearGradient id="hat_onihorns-body" x1="60" y1="40" x2="190" y2="220">
    <stop offset="0" stop-color="#dbeafe"/><stop offset=".46" stop-color="#60a5fa"/><stop offset="1" stop-color="#1e3a8a"/>
  </linearGradient>
  <filter id="hat_onihorns-shadow" x="-35%" y="-35%" width="170%" height="180%">
    <feDropShadow dx="0" dy="15" stdDeviation="13" flood-color="#000" flood-opacity=".46"/>
  </filter>
  <clipPath id="hat_onihorns-clip"><rect x="28" y="28" width="200" height="200" rx="38"/></clipPath>
</defs>
<rect width="256" height="256" rx="46" fill="#0b1220"/>
<rect x="18" y="18" width="220" height="220" rx="46" fill="url(#hat_onihorns-rim)"/>
<rect x="24" y="24" width="208" height="208" rx="41" fill="url(#hat_onihorns-bg)"/>
<g clip-path="url(#hat_onihorns-clip)">
  <path d="M-8 212C39 178 55 132 81 77c28 35 58 43 94 25 26 45 55 78 91 99v60H-8Z" fill="#020617" opacity=".31"/>
  <circle cx="198" cy="58" r="29" fill="#fff" opacity=".13"/>
  <circle cx="59" cy="202" r="31" fill="#fff" opacity=".10"/>
  <path d="M72 142c-1-44 25-70 56-70s57 26 56 70c-2 41-25 62-56 62s-54-21-56-62Z" fill="url(#hat_onihorns-body)" stroke="#071421" stroke-width="8"/><path d="M88 95 60 50M168 95l28-45" stroke="#fff" stroke-width="11" stroke-linecap="round"/><circle cx="109" cy="145" r="8" fill="#071421"/><circle cx="149" cy="145" r="8" fill="#071421"/>
  <g fill="#fff" opacity=".75"><circle cx="202" cy="58" r="6"/><circle cx="51" cy="203" r="3"/><circle cx="47" cy="76" r="2.5"/></g>
</g>
<rect x="24" y="24" width="208" height="208" rx="41" fill="none" stroke="#fff7d6" stroke-width="2" opacity=".56"/>
<rect x="18" y="18" width="220" height="220" rx="46" fill="none" stroke="#0f172a" stroke-width="5" opacity=".45"/>
</svg>