<svg xmlns="http://www.w3.org/2000/svg" viewBox="0 0 128 128" role="img" aria-label="Newbie voyage title">
  <defs>
    <linearGradient id="scroll" x1="18" y1="24" x2="110" y2="104" gradientUnits="userSpaceOnUse">
      <stop offset="0" stop-color="#fff7d6"/>
      <stop offset="1" stop-color="#e5b85b"/>
    </linearGradient>
    <linearGradient id="sea" x1="28" y1="80" x2="100" y2="104" gradientUnits="userSpaceOnUse">
      <stop offset="0" stop-color="#14b8a6"/>
      <stop offset="1" stop-color="#2563eb"/>
    </linearGradient>
  </defs>
  <rect x="22" y="20" width="84" height="88" rx="14" fill="url(#scroll)" stroke="#8a5a1f" stroke-width="5"/>
  <path d="M38 45h52M38 58h38" stroke="#8a5a1f" stroke-width="6" stroke-linecap="round"/>
  <path d="M29 86c12-10 22-10 35 0s24 10 35 0v14c-12 10-23 10-35 0s-24-10-35 0V86z" fill="url(#sea)" opacity=".92"/>
  <path d="M63 72l12 8-12 8-12-8 12-8z" fill="#f97316" stroke="#7c2d12" stroke-width="3"/>
  <path d="M64 34l5 10 11 2-8 8 2 11-10-5-10 5 2-11-8-8 11-2 5-10z" fill="#facc15" stroke="#92400e" stroke-width="3"/>
</svg>
