<svg xmlns="http://www.w3.org/2000/svg" viewBox="0 0 256 256" role="img" aria-label="天命棋士">
<defs>
  <radialGradient id="title_celestial-bg" cx="30%" cy="22%" r="88%">
    <stop offset="0" stop-color="#fef3c7"/><stop offset=".52" stop-color="#7c3aed"/><stop offset="1" stop-color="#090f1d"/>
  </radialGradient>
  <linearGradient id="title_celestial-rim" x1="20" y1="18" x2="236" y2="240">
    <stop offset="0" stop-color="#fff2bb"/><stop offset=".48" stop-color="#fbbf24"/><stop offset="1" stop-color="#2e1065"/>
  </linearGradient>
  <linearGradient id="title_celestial-body" x1="60" y1="40" x2="190" y2="220">
    <stop offset="0" stop-color="#fef3c7"/><stop offset=".46" stop-color="#fbbf24"/><stop offset="1" stop-color="#2e1065"/>
  </linearGradient>
  <filter id="title_celestial-shadow" x="-35%" y="-35%" width="170%" height="180%">
    <feDropShadow dx="0" dy="15" stdDeviation="13" flood-color="#000" flood-opacity=".46"/>
  </filter>
  <clipPath id="title_celestial-clip"><rect x="28" y="28" width="200" height="200" rx="38"/></clipPath>
</defs>
<rect width="256" height="256" rx="46" fill="#0b1220"/>
<rect x="18" y="18" width="220" height="220" rx="46" fill="url(#title_celestial-rim)"/>
<rect x="24" y="24" width="208" height="208" rx="41" fill="url(#title_celestial-bg)"/>
<g clip-path="url(#title_celestial-clip)">
  <path d="M-8 212C39 178 55 132 81 77c28 35 58 43 94 25 26 45 55 78 91 99v60H-8Z" fill="#020617" opacity=".31"/>
  <circle cx="198" cy="58" r="29" fill="#fff" opacity=".13"/>
  <circle cx="59" cy="202" r="31" fill="#fff" opacity=".10"/>
  <path d="M57 82h142v105H57Z" fill="url(#title_celestial-body)" stroke="#071421" stroke-width="8" filter="url(#title_celestial-shadow)"/><path d="M75 112h58M75 143h80M75 169h52" stroke="#071421" stroke-width="7" stroke-linecap="round"/><circle cx="128" cy="132" r="48" fill="#fff" opacity=".62" stroke="#071421" stroke-width="7"/><path d="M128 84a24 24 0 0 1 0 48 24 24 0 0 0 0 48 48 48 0 0 0 0-96Z" fill="#071421"/><circle cx="128" cy="108" r="7" fill="#071421"/><circle cx="128" cy="156" r="7" fill="#fff"/>
  <g fill="#fff" opacity=".75"><circle cx="202" cy="58" r="6"/><circle cx="51" cy="203" r="3"/><circle cx="47" cy="76" r="2.5"/></g>
</g>
<rect x="24" y="24" width="208" height="208" rx="41" fill="none" stroke="#fff7d6" stroke-width="2" opacity=".56"/>
<rect x="18" y="18" width="220" height="220" rx="46" fill="none" stroke="#0f172a" stroke-width="5" opacity=".45"/>
</svg>