<svg xmlns="http://www.w3.org/2000/svg" viewBox="0 0 256 256" role="img" aria-label="Ancient Idol">
  <defs>
    <radialGradient id="ancient_idol-bg" cx="34%" cy="23%" r="82%">
      <stop offset="0" stop-color="#cbd5e1"/>
      <stop offset=".58" stop-color="#111827"/>
      <stop offset="1" stop-color="#080d18"/>
    </radialGradient>
    <linearGradient id="ancient_idol-gold" x1="26" y1="22" x2="224" y2="232" gradientUnits="userSpaceOnUse">
      <stop offset="0" stop-color="#fff2b8"/>
      <stop offset=".42" stop-color="#d7a84c"/>
      <stop offset="1" stop-color="#714715"/>
    </linearGradient>
    <linearGradient id="ancient_idol-body" x1="62" y1="52" x2="194" y2="210" gradientUnits="userSpaceOnUse">
      <stop offset="0" stop-color="#94a3b8"/>
      <stop offset=".47" stop-color="#44536a"/>
      <stop offset="1" stop-color="#172033"/>
    </linearGradient>
    <filter id="ancient_idol-shadow" x="-30%" y="-30%" width="160%" height="170%">
      <feDropShadow dx="0" dy="16" stdDeviation="14" flood-color="#000" flood-opacity=".48"/>
    </filter>
    <filter id="ancient_idol-glow" x="-40%" y="-40%" width="180%" height="180%">
      <feGaussianBlur stdDeviation="4" result="blur"/>
      <feMerge><feMergeNode in="blur"/><feMergeNode in="SourceGraphic"/></feMerge>
    </filter>
    <clipPath id="ancient_idol-clip"><rect x="28" y="28" width="200" height="200" rx="38"/></clipPath>
  </defs>
  <rect width="256" height="256" rx="46" fill="#0b1220"/>
  <rect x="18" y="18" width="220" height="220" rx="46" fill="url(#ancient_idol-gold)"/>
  <rect x="24" y="24" width="208" height="208" rx="41" fill="url(#ancient_idol-bg)"/>
  <g clip-path="url(#ancient_idol-clip)">
    <path d="M-10 208C34 177 53 144 78 79c22 32 52 44 91 25 30 43 53 76 107 96v60H-10Z" fill="#020617" opacity=".34"/>
    <circle cx="196" cy="56" r="26" fill="#fbbf24" opacity=".16" filter="url(#ancient_idol-glow)"/>
    <circle cx="66" cy="198" r="32" fill="#94a3b8" opacity=".10" filter="url(#ancient_idol-glow)"/>
    <path d="M36 56c52-24 114-24 184 5" fill="none" stroke="#fff" stroke-width="2" opacity=".10"/>
    
      <path d="M47 214h162M65 190h126M73 105h110M58 105 128 49l70 56Z" fill="none" stroke="#111827" stroke-width="10" stroke-linecap="round" filter="url(#ancient_idol-shadow)"/>
      <path d="M87 105h31v85H87ZM138 105h31v85h-31Z" fill="url(#ancient_idol-body)" stroke="#111827" stroke-width="8"/>
      <circle cx="128" cy="77" r="15" fill="#fbbf24" stroke="#111827" stroke-width="7"/>
      <path d="M128 53v49" stroke="#111827" stroke-width="7" stroke-linecap="round"/>
    
    <g fill="#fff" opacity=".72">
      <circle cx="203" cy="58" r="6"/><circle cx="52" cy="202" r="3"/><circle cx="43" cy="72" r="2.5"/>
    </g>
  </g>
  <rect x="24" y="24" width="208" height="208" rx="41" fill="none" stroke="#fff7d6" stroke-width="2" opacity=".55"/>
  <rect x="18" y="18" width="220" height="220" rx="46" fill="none" stroke="#0f172a" stroke-width="5" opacity=".45"/>
</svg>
