<svg xmlns="http://www.w3.org/2000/svg" viewBox="0 0 256 256" role="img" aria-label="Archmage Lich">
  <defs>
    <radialGradient id="archmage_lich-bg" cx="34%" cy="23%" r="82%">
      <stop offset="0" stop-color="#c4a5ff"/>
      <stop offset=".58" stop-color="#24114f"/>
      <stop offset="1" stop-color="#080d18"/>
    </radialGradient>
    <linearGradient id="archmage_lich-gold" x1="26" y1="22" x2="224" y2="232" gradientUnits="userSpaceOnUse">
      <stop offset="0" stop-color="#fff2b8"/>
      <stop offset=".42" stop-color="#d7a84c"/>
      <stop offset="1" stop-color="#714715"/>
    </linearGradient>
    <linearGradient id="archmage_lich-body" x1="62" y1="52" x2="194" y2="210" gradientUnits="userSpaceOnUse">
      <stop offset="0" stop-color="#dfc7ff"/>
      <stop offset=".47" stop-color="#7838d2"/>
      <stop offset="1" stop-color="#34116f"/>
    </linearGradient>
    <filter id="archmage_lich-shadow" x="-30%" y="-30%" width="160%" height="170%">
      <feDropShadow dx="0" dy="16" stdDeviation="14" flood-color="#000" flood-opacity=".48"/>
    </filter>
    <filter id="archmage_lich-glow" x="-40%" y="-40%" width="180%" height="180%">
      <feGaussianBlur stdDeviation="4" result="blur"/>
      <feMerge><feMergeNode in="blur"/><feMergeNode in="SourceGraphic"/></feMerge>
    </filter>
    <clipPath id="archmage_lich-clip"><rect x="28" y="28" width="200" height="200" rx="38"/></clipPath>
  </defs>
  <rect width="256" height="256" rx="46" fill="#0b1220"/>
  <rect x="18" y="18" width="220" height="220" rx="46" fill="url(#archmage_lich-gold)"/>
  <rect x="24" y="24" width="208" height="208" rx="41" fill="url(#archmage_lich-bg)"/>
  <g clip-path="url(#archmage_lich-clip)">
    <path d="M-10 208C34 177 53 144 78 79c22 32 52 44 91 25 30 43 53 76 107 96v60H-10Z" fill="#020617" opacity=".34"/>
    <circle cx="196" cy="56" r="26" fill="#facc15" opacity=".16" filter="url(#archmage_lich-glow)"/>
    <circle cx="66" cy="198" r="32" fill="#dfc7ff" opacity=".10" filter="url(#archmage_lich-glow)"/>
    <path d="M36 56c52-24 114-24 184 5" fill="none" stroke="#fff" stroke-width="2" opacity=".10"/>
    
      <path d="M39 216 84 99c11-51 79-51 90 0l43 117Z" fill="url(#archmage_lich-body)" stroke="#1e1b4b" stroke-width="8" filter="url(#archmage_lich-shadow)"/>
      <path d="M78 101 128 18l54 83Z" fill="#7c3aed" stroke="#1e1b4b" stroke-width="7"/>
      <path d="M96 84h65M128 19v66" fill="none" stroke="#1e1b4b" stroke-width="7"/>
      <path d="M96 145c0-27 15-43 33-43s33 16 33 43-15 48-33 48-33-21-33-48Z" fill="#f8fafc" stroke="#1e1b4b" stroke-width="6"/>
      <circle cx="114" cy="145" r="8" fill="#facc15"/><circle cx="146" cy="145" r="8" fill="#facc15"/>
    <g fill="#fff" opacity=".72">
      <circle cx="203" cy="58" r="6"/><circle cx="52" cy="202" r="3"/><circle cx="43" cy="72" r="2.5"/>
    </g>
  </g>
  <rect x="24" y="24" width="208" height="208" rx="41" fill="none" stroke="#fff7d6" stroke-width="2" opacity=".55"/>
  <rect x="18" y="18" width="220" height="220" rx="46" fill="none" stroke="#0f172a" stroke-width="5" opacity=".45"/>
</svg>
