<svg xmlns="http://www.w3.org/2000/svg" viewBox="0 0 256 256" role="img" aria-label="Bounty Warlord">
  <defs>
    <radialGradient id="bounty_warlord-bg" cx="34%" cy="23%" r="82%">
      <stop offset="0" stop-color="#ffd083"/>
      <stop offset=".58" stop-color="#4a1f08"/>
      <stop offset="1" stop-color="#080d18"/>
    </radialGradient>
    <linearGradient id="bounty_warlord-gold" x1="26" y1="22" x2="224" y2="232" gradientUnits="userSpaceOnUse">
      <stop offset="0" stop-color="#fff2b8"/>
      <stop offset=".42" stop-color="#d7a84c"/>
      <stop offset="1" stop-color="#714715"/>
    </linearGradient>
    <linearGradient id="bounty_warlord-body" x1="62" y1="52" x2="194" y2="210" gradientUnits="userSpaceOnUse">
      <stop offset="0" stop-color="#f7b65b"/>
      <stop offset=".47" stop-color="#b8560b"/>
      <stop offset="1" stop-color="#612307"/>
    </linearGradient>
    <filter id="bounty_warlord-shadow" x="-30%" y="-30%" width="160%" height="170%">
      <feDropShadow dx="0" dy="16" stdDeviation="14" flood-color="#000" flood-opacity=".48"/>
    </filter>
    <filter id="bounty_warlord-glow" x="-40%" y="-40%" width="180%" height="180%">
      <feGaussianBlur stdDeviation="4" result="blur"/>
      <feMerge><feMergeNode in="blur"/><feMergeNode in="SourceGraphic"/></feMerge>
    </filter>
    <clipPath id="bounty_warlord-clip"><rect x="28" y="28" width="200" height="200" rx="38"/></clipPath>
  </defs>
  <rect width="256" height="256" rx="46" fill="#0b1220"/>
  <rect x="18" y="18" width="220" height="220" rx="46" fill="url(#bounty_warlord-gold)"/>
  <rect x="24" y="24" width="208" height="208" rx="41" fill="url(#bounty_warlord-bg)"/>
  <g clip-path="url(#bounty_warlord-clip)">
    <path d="M-10 208C34 177 53 144 78 79c22 32 52 44 91 25 30 43 53 76 107 96v60H-10Z" fill="#020617" opacity=".34"/>
    <circle cx="196" cy="56" r="26" fill="#fbbf24" opacity=".16" filter="url(#bounty_warlord-glow)"/>
    <circle cx="66" cy="198" r="32" fill="#f7b65b" opacity=".10" filter="url(#bounty_warlord-glow)"/>
    <path d="M36 56c52-24 114-24 184 5" fill="none" stroke="#fff" stroke-width="2" opacity=".10"/>
    
      <path d="M54 151c6-64 40-100 82-100s76 36 82 100c-18 44-47 64-82 64s-64-20-82-64Z" fill="url(#bounty_warlord-body)" stroke="#4a1d06" stroke-width="8" filter="url(#bounty_warlord-shadow)"/>
      <path d="M92 72c22-34 66-34 88 0l-18 21h-52Z" fill="#e5e7eb" stroke="#4a1d06" stroke-width="7"/>
      <path d="M88 176 70 215l40-24ZM184 176l18 39-40-24Z" fill="#fff1bd" stroke="#4a1d06" stroke-width="6"/>
      <circle cx="108" cy="140" r="8" fill="#101827"/><circle cx="163" cy="140" r="8" fill="#101827"/><path d="M101 168c19 13 44 12 62-2" fill="none" stroke="#071421" stroke-width="8" stroke-linecap="round" opacity=".7"/>
    <g fill="#fff" opacity=".72">
      <circle cx="203" cy="58" r="6"/><circle cx="52" cy="202" r="3"/><circle cx="43" cy="72" r="2.5"/>
    </g>
  </g>
  <rect x="24" y="24" width="208" height="208" rx="41" fill="none" stroke="#fff7d6" stroke-width="2" opacity=".55"/>
  <rect x="18" y="18" width="220" height="220" rx="46" fill="none" stroke="#0f172a" stroke-width="5" opacity=".45"/>
</svg>
