<svg xmlns="http://www.w3.org/2000/svg" viewBox="0 0 256 256" role="img" aria-label="Defeated Monster">
  <defs>
    <radialGradient id="defeated-bg" cx="34%" cy="23%" r="82%">
      <stop offset="0" stop-color="#e5e7eb"/>
      <stop offset=".58" stop-color="#303846"/>
      <stop offset="1" stop-color="#080d18"/>
    </radialGradient>
    <linearGradient id="defeated-gold" x1="26" y1="22" x2="224" y2="232" gradientUnits="userSpaceOnUse">
      <stop offset="0" stop-color="#fff2b8"/>
      <stop offset=".42" stop-color="#d7a84c"/>
      <stop offset="1" stop-color="#714715"/>
    </linearGradient>
    <linearGradient id="defeated-body" x1="62" y1="52" x2="194" y2="210" gradientUnits="userSpaceOnUse">
      <stop offset="0" stop-color="#d1d5db"/>
      <stop offset=".47" stop-color="#9ca3af"/>
      <stop offset="1" stop-color="#48515f"/>
    </linearGradient>
    <filter id="defeated-shadow" x="-30%" y="-30%" width="160%" height="170%">
      <feDropShadow dx="0" dy="16" stdDeviation="14" flood-color="#000" flood-opacity=".48"/>
    </filter>
    <filter id="defeated-glow" x="-40%" y="-40%" width="180%" height="180%">
      <feGaussianBlur stdDeviation="4" result="blur"/>
      <feMerge><feMergeNode in="blur"/><feMergeNode in="SourceGraphic"/></feMerge>
    </filter>
    <clipPath id="defeated-clip"><rect x="28" y="28" width="200" height="200" rx="38"/></clipPath>
  </defs>
  <rect width="256" height="256" rx="46" fill="#0b1220"/>
  <rect x="18" y="18" width="220" height="220" rx="46" fill="url(#defeated-gold)"/>
  <rect x="24" y="24" width="208" height="208" rx="41" fill="url(#defeated-bg)"/>
  <g clip-path="url(#defeated-clip)">
    <path d="M-10 208C34 177 53 144 78 79c22 32 52 44 91 25 30 43 53 76 107 96v60H-10Z" fill="#020617" opacity=".34"/>
    <circle cx="196" cy="56" r="26" fill="#f8fafc" opacity=".16" filter="url(#defeated-glow)"/>
    <circle cx="66" cy="198" r="32" fill="#d1d5db" opacity=".10" filter="url(#defeated-glow)"/>
    <path d="M36 56c52-24 114-24 184 5" fill="none" stroke="#fff" stroke-width="2" opacity=".10"/>
    
      <path d="M74 171c-17-57 17-104 58-104s75 47 58 104c-12 35-41 49-58 49s-46-14-58-49Z" fill="url(#defeated-body)" stroke="#374151" stroke-width="8" filter="url(#defeated-shadow)"/>
      <path d="M98 125l23 23M121 125l-23 23M142 125l23 23M165 125l-23 23M107 181h42" fill="none" stroke="#374151" stroke-width="8" stroke-linecap="round"/>
    
    <g fill="#fff" opacity=".72">
      <circle cx="203" cy="58" r="6"/><circle cx="52" cy="202" r="3"/><circle cx="43" cy="72" r="2.5"/>
    </g>
  </g>
  <rect x="24" y="24" width="208" height="208" rx="41" fill="none" stroke="#fff7d6" stroke-width="2" opacity=".55"/>
  <rect x="18" y="18" width="220" height="220" rx="46" fill="none" stroke="#0f172a" stroke-width="5" opacity=".45"/>
</svg>
