<svg xmlns="http://www.w3.org/2000/svg" viewBox="0 0 256 256" role="img" aria-label="Fate Deity">
  <defs>
    <radialGradient id="fate_deity-bg" cx="34%" cy="23%" r="82%">
      <stop offset="0" stop-color="#ffd1b0"/>
      <stop offset=".58" stop-color="#3b1558"/>
      <stop offset="1" stop-color="#080d18"/>
    </radialGradient>
    <linearGradient id="fate_deity-gold" x1="26" y1="22" x2="224" y2="232" gradientUnits="userSpaceOnUse">
      <stop offset="0" stop-color="#fff2b8"/>
      <stop offset=".42" stop-color="#d7a84c"/>
      <stop offset="1" stop-color="#714715"/>
    </linearGradient>
    <linearGradient id="fate_deity-body" x1="62" y1="52" x2="194" y2="210" gradientUnits="userSpaceOnUse">
      <stop offset="0" stop-color="#fed7aa"/>
      <stop offset=".47" stop-color="#f97316"/>
      <stop offset="1" stop-color="#4c1d95"/>
    </linearGradient>
    <filter id="fate_deity-shadow" x="-30%" y="-30%" width="160%" height="170%">
      <feDropShadow dx="0" dy="16" stdDeviation="14" flood-color="#000" flood-opacity=".48"/>
    </filter>
    <filter id="fate_deity-glow" x="-40%" y="-40%" width="180%" height="180%">
      <feGaussianBlur stdDeviation="4" result="blur"/>
      <feMerge><feMergeNode in="blur"/><feMergeNode in="SourceGraphic"/></feMerge>
    </filter>
    <clipPath id="fate_deity-clip"><rect x="28" y="28" width="200" height="200" rx="38"/></clipPath>
  </defs>
  <rect width="256" height="256" rx="46" fill="#0b1220"/>
  <rect x="18" y="18" width="220" height="220" rx="46" fill="url(#fate_deity-gold)"/>
  <rect x="24" y="24" width="208" height="208" rx="41" fill="url(#fate_deity-bg)"/>
  <g clip-path="url(#fate_deity-clip)">
    <path d="M-10 208C34 177 53 144 78 79c22 32 52 44 91 25 30 43 53 76 107 96v60H-10Z" fill="#020617" opacity=".34"/>
    <circle cx="196" cy="56" r="26" fill="#e0e7ff" opacity=".16" filter="url(#fate_deity-glow)"/>
    <circle cx="66" cy="198" r="32" fill="#fed7aa" opacity=".10" filter="url(#fate_deity-glow)"/>
    <path d="M36 56c52-24 114-24 184 5" fill="none" stroke="#fff" stroke-width="2" opacity=".10"/>
    
      <circle cx="128" cy="132" r="82" fill="url(#fate_deity-body)" stroke="#4c1d95" stroke-width="8" filter="url(#fate_deity-shadow)"/>
      <circle cx="128" cy="132" r="59" fill="#fed7aa" opacity=".9"/><circle cx="128" cy="132" r="20" fill="#fff" stroke="#4c1d95" stroke-width="7"/>
      <path d="M128 51v162M47 132h162M72 76l112 112M184 76 72 188" fill="none" stroke="#4c1d95" stroke-width="7"/>
      <circle cx="128" cy="132" r="7" fill="#dc2626"/>
    
    <g fill="#fff" opacity=".72">
      <circle cx="203" cy="58" r="6"/><circle cx="52" cy="202" r="3"/><circle cx="43" cy="72" r="2.5"/>
    </g>
  </g>
  <rect x="24" y="24" width="208" height="208" rx="41" fill="none" stroke="#fff7d6" stroke-width="2" opacity=".55"/>
  <rect x="18" y="18" width="220" height="220" rx="46" fill="none" stroke="#0f172a" stroke-width="5" opacity=".45"/>
</svg>
