<svg xmlns="http://www.w3.org/2000/svg" viewBox="0 0 256 256" role="img" aria-label="Forest Spirit">
  <defs>
    <radialGradient id="forest_spirit-bg" cx="34%" cy="23%" r="82%">
      <stop offset="0" stop-color="#a7ffe0"/>
      <stop offset=".58" stop-color="#064e4a"/>
      <stop offset="1" stop-color="#080d18"/>
    </radialGradient>
    <linearGradient id="forest_spirit-gold" x1="26" y1="22" x2="224" y2="232" gradientUnits="userSpaceOnUse">
      <stop offset="0" stop-color="#fff2b8"/>
      <stop offset=".42" stop-color="#d7a84c"/>
      <stop offset="1" stop-color="#714715"/>
    </linearGradient>
    <linearGradient id="forest_spirit-body" x1="62" y1="52" x2="194" y2="210" gradientUnits="userSpaceOnUse">
      <stop offset="0" stop-color="#d9fff0"/>
      <stop offset=".47" stop-color="#38d39f"/>
      <stop offset="1" stop-color="#0d6b61"/>
    </linearGradient>
    <filter id="forest_spirit-shadow" x="-30%" y="-30%" width="160%" height="170%">
      <feDropShadow dx="0" dy="16" stdDeviation="14" flood-color="#000" flood-opacity=".48"/>
    </filter>
    <filter id="forest_spirit-glow" x="-40%" y="-40%" width="180%" height="180%">
      <feGaussianBlur stdDeviation="4" result="blur"/>
      <feMerge><feMergeNode in="blur"/><feMergeNode in="SourceGraphic"/></feMerge>
    </filter>
    <clipPath id="forest_spirit-clip"><rect x="28" y="28" width="200" height="200" rx="38"/></clipPath>
  </defs>
  <rect width="256" height="256" rx="46" fill="#0b1220"/>
  <rect x="18" y="18" width="220" height="220" rx="46" fill="url(#forest_spirit-gold)"/>
  <rect x="24" y="24" width="208" height="208" rx="41" fill="url(#forest_spirit-bg)"/>
  <g clip-path="url(#forest_spirit-clip)">
    <path d="M-10 208C34 177 53 144 78 79c22 32 52 44 91 25 30 43 53 76 107 96v60H-10Z" fill="#020617" opacity=".34"/>
    <circle cx="196" cy="56" r="26" fill="#bef264" opacity=".16" filter="url(#forest_spirit-glow)"/>
    <circle cx="66" cy="198" r="32" fill="#d9fff0" opacity=".10" filter="url(#forest_spirit-glow)"/>
    <path d="M36 56c52-24 114-24 184 5" fill="none" stroke="#fff" stroke-width="2" opacity=".10"/>
    
      <path d="M128 31c57 39 82 84 68 129-12 38-53 68-101 52-41-14-56-54-36-91 17-34 48-58 69-90Z" fill="url(#forest_spirit-body)" stroke="#087066" stroke-width="8" filter="url(#forest_spirit-shadow)"/>
      <path d="M128 43c-4 70 1 116 17 167" fill="none" stroke="#d9fff0" stroke-width="8" opacity=".5"/>
      <path d="M73 151c31-20 74-20 113 2M86 110c35-9 66-2 91 19" fill="none" stroke="#087066" stroke-width="7" stroke-linecap="round"/>
      <circle cx="102" cy="143" r="8" fill="#064e3b"/><circle cx="151" cy="143" r="8" fill="#064e3b"/>
    <g fill="#fff" opacity=".72">
      <circle cx="203" cy="58" r="6"/><circle cx="52" cy="202" r="3"/><circle cx="43" cy="72" r="2.5"/>
    </g>
  </g>
  <rect x="24" y="24" width="208" height="208" rx="41" fill="none" stroke="#fff7d6" stroke-width="2" opacity=".55"/>
  <rect x="18" y="18" width="220" height="220" rx="46" fill="none" stroke="#0f172a" stroke-width="5" opacity=".45"/>
</svg>
