<svg xmlns="http://www.w3.org/2000/svg" viewBox="0 0 256 256" role="img" aria-label="Storm Deity">
  <defs>
    <radialGradient id="storm_deity-bg" cx="34%" cy="23%" r="82%">
      <stop offset="0" stop-color="#ffe29a"/>
      <stop offset=".58" stop-color="#5b1d0f"/>
      <stop offset="1" stop-color="#080d18"/>
    </radialGradient>
    <linearGradient id="storm_deity-gold" x1="26" y1="22" x2="224" y2="232" gradientUnits="userSpaceOnUse">
      <stop offset="0" stop-color="#fff2b8"/>
      <stop offset=".42" stop-color="#d7a84c"/>
      <stop offset="1" stop-color="#714715"/>
    </linearGradient>
    <linearGradient id="storm_deity-body" x1="62" y1="52" x2="194" y2="210" gradientUnits="userSpaceOnUse">
      <stop offset="0" stop-color="#fff2b8"/>
      <stop offset=".47" stop-color="#f59e0b"/>
      <stop offset="1" stop-color="#8d2f12"/>
    </linearGradient>
    <filter id="storm_deity-shadow" x="-30%" y="-30%" width="160%" height="170%">
      <feDropShadow dx="0" dy="16" stdDeviation="14" flood-color="#000" flood-opacity=".48"/>
    </filter>
    <filter id="storm_deity-glow" x="-40%" y="-40%" width="180%" height="180%">
      <feGaussianBlur stdDeviation="4" result="blur"/>
      <feMerge><feMergeNode in="blur"/><feMergeNode in="SourceGraphic"/></feMerge>
    </filter>
    <clipPath id="storm_deity-clip"><rect x="28" y="28" width="200" height="200" rx="38"/></clipPath>
  </defs>
  <rect width="256" height="256" rx="46" fill="#0b1220"/>
  <rect x="18" y="18" width="220" height="220" rx="46" fill="url(#storm_deity-gold)"/>
  <rect x="24" y="24" width="208" height="208" rx="41" fill="url(#storm_deity-bg)"/>
  <g clip-path="url(#storm_deity-clip)">
    <path d="M-10 208C34 177 53 144 78 79c22 32 52 44 91 25 30 43 53 76 107 96v60H-10Z" fill="#020617" opacity=".34"/>
    <circle cx="196" cy="56" r="26" fill="#fef3c7" opacity=".16" filter="url(#storm_deity-glow)"/>
    <circle cx="66" cy="198" r="32" fill="#fff2b8" opacity=".10" filter="url(#storm_deity-glow)"/>
    <path d="M36 56c52-24 114-24 184 5" fill="none" stroke="#fff" stroke-width="2" opacity=".10"/>
    
      <path d="M128 31 154 94l68 2-51 43 19 66-62-38-62 38 19-66-51-43 68-2Z" fill="url(#storm_deity-body)" stroke="#7c2d12" stroke-width="8" filter="url(#storm_deity-shadow)"/>
      <path d="M131 78 109 137h34l-20 58 54-78h-34Z" fill="#fff1b2"/>
      <circle cx="105" cy="144" r="8" fill="#7c2d12"/><circle cx="153" cy="144" r="8" fill="#7c2d12"/>
    <g fill="#fff" opacity=".72">
      <circle cx="203" cy="58" r="6"/><circle cx="52" cy="202" r="3"/><circle cx="43" cy="72" r="2.5"/>
    </g>
  </g>
  <rect x="24" y="24" width="208" height="208" rx="41" fill="none" stroke="#fff7d6" stroke-width="2" opacity=".55"/>
  <rect x="18" y="18" width="220" height="220" rx="46" fill="none" stroke="#0f172a" stroke-width="5" opacity=".45"/>
</svg>
